<?xml version="1.0" encoding="UTF-8"?>
<svg xmlns="http://www.w3.org/2000/svg" xmlns:xlink="http://www.w3.org/1999/xlink" width="12pt" height="12pt" viewBox="0 0 12 12" version="1.1">
<g id="surface1">
<path style=" stroke:none;fill-rule:nonzero;fill:rgb(0%,0%,0%);fill-opacity:1;" d="M 11.339844 0.785156 L 11.214844 0.664062 C 10.789062 0.234375 10.21875 0 9.617188 0 C 9.011719 0 8.441406 0.234375 8.015625 0.664062 L 6.03125 2.648438 C 5.917969 2.761719 5.917969 2.941406 6.03125 3.054688 C 6.140625 3.167969 6.324219 3.167969 6.4375 3.054688 L 8.421875 1.070312 C 8.742188 0.75 9.164062 0.574219 9.617188 0.574219 C 10.066406 0.574219 10.488281 0.75 10.808594 1.070312 L 10.933594 1.191406 C 11.589844 1.851562 11.589844 2.921875 10.933594 3.578125 L 7.332031 7.179688 C 6.675781 7.835938 5.605469 7.835938 4.945312 7.179688 L 4.824219 7.054688 C 4.585938 6.816406 4.425781 6.519531 4.359375 6.191406 C 4.332031 6.035156 4.179688 5.933594 4.023438 5.964844 C 3.867188 5.996094 3.765625 6.148438 3.796875 6.300781 C 3.882812 6.742188 4.097656 7.140625 4.417969 7.460938 L 4.539062 7.585938 C 4.980469 8.023438 5.5625 8.246094 6.140625 8.246094 C 6.71875 8.246094 7.296875 8.023438 7.738281 7.585938 L 11.339844 3.984375 C 12.21875 3.101562 12.21875 1.667969 11.339844 0.785156 Z M 11.339844 0.785156 "/>
<path style=" stroke:none;fill-rule:nonzero;fill:rgb(0%,0%,0%);fill-opacity:1;" d="M 5.566406 8.945312 L 3.578125 10.933594 C 2.921875 11.589844 1.851562 11.589844 1.191406 10.933594 L 1.070312 10.808594 C 0.410156 10.152344 0.410156 9.078125 1.070312 8.421875 L 4.667969 4.824219 C 5.324219 4.164062 6.394531 4.164062 7.054688 4.824219 L 7.179688 4.945312 C 7.414062 5.183594 7.574219 5.484375 7.640625 5.808594 C 7.671875 5.964844 7.820312 6.066406 7.976562 6.035156 C 8.132812 6.003906 8.234375 5.855469 8.203125 5.699219 C 8.117188 5.257812 7.902344 4.859375 7.585938 4.539062 L 7.460938 4.417969 C 6.578125 3.535156 5.144531 3.535156 4.261719 4.417969 L 0.664062 8.015625 C 0.234375 8.441406 0 9.011719 0 9.617188 C 0 10.21875 0.234375 10.789062 0.664062 11.214844 L 0.785156 11.339844 C 1.226562 11.78125 1.808594 12 2.386719 12 C 2.964844 12 3.542969 11.78125 3.984375 11.339844 L 5.972656 9.351562 C 6.082031 9.242188 6.082031 9.058594 5.972656 8.945312 C 5.859375 8.835938 5.675781 8.835938 5.566406 8.945312 Z M 5.566406 8.945312 "/>
</g>
</svg>
