<?xml version="1.0" encoding="UTF-8"?>
<svg xmlns="http://www.w3.org/2000/svg" xmlns:xlink="http://www.w3.org/1999/xlink" width="16pt" height="16pt" viewBox="0 0 16 16" version="1.1">
<g id="surface1">
<path style=" stroke:none;fill-rule:nonzero;fill:rgb(0%,0%,0%);fill-opacity:1;" d="M 15.117188 1.046875 L 14.953125 0.882812 C 14.382812 0.3125 13.625 0 12.820312 0 C 12.015625 0 11.257812 0.3125 10.6875 0.882812 L 8.039062 3.53125 C 7.890625 3.679688 7.890625 3.921875 8.039062 4.074219 C 8.191406 4.222656 8.433594 4.222656 8.582031 4.074219 L 11.230469 1.425781 C 11.65625 1 12.21875 0.765625 12.820312 0.765625 C 13.421875 0.765625 13.984375 1 14.410156 1.425781 L 14.578125 1.589844 C 15.453125 2.46875 15.453125 3.894531 14.578125 4.773438 L 9.777344 9.570312 C 8.902344 10.449219 7.472656 10.449219 6.597656 9.570312 L 6.429688 9.40625 C 6.113281 9.089844 5.902344 8.691406 5.816406 8.253906 C 5.773438 8.046875 5.570312 7.910156 5.363281 7.953125 C 5.15625 7.992188 5.023438 8.195312 5.0625 8.402344 C 5.179688 8.988281 5.464844 9.523438 5.890625 9.945312 L 6.054688 10.113281 C 6.644531 10.699219 7.414062 10.996094 8.1875 10.996094 C 8.960938 10.996094 9.730469 10.699219 10.320312 10.113281 L 15.117188 5.3125 C 16.292969 4.136719 16.292969 2.222656 15.117188 1.046875 Z M 15.117188 1.046875 "/>
<path style=" stroke:none;fill-rule:nonzero;fill:rgb(0%,0%,0%);fill-opacity:1;" d="M 7.417969 11.929688 L 4.773438 14.578125 C 3.894531 15.453125 2.46875 15.453125 1.589844 14.578125 L 1.425781 14.410156 C 0.546875 13.535156 0.546875 12.105469 1.425781 11.230469 L 6.222656 6.429688 C 7.101562 5.554688 8.527344 5.554688 9.40625 6.429688 L 9.570312 6.597656 C 9.886719 6.914062 10.101562 7.308594 10.1875 7.746094 C 10.226562 7.953125 10.429688 8.089844 10.636719 8.046875 C 10.84375 8.007812 10.980469 7.804688 10.9375 7.597656 C 10.820312 7.011719 10.535156 6.476562 10.113281 6.054688 L 9.945312 5.890625 C 8.769531 4.714844 6.859375 4.714844 5.683594 5.890625 L 0.882812 10.6875 C 0.3125 11.257812 0 12.015625 0 12.820312 C 0 13.625 0.3125 14.382812 0.882812 14.953125 L 1.046875 15.117188 C 1.636719 15.707031 2.410156 16 3.179688 16 C 3.953125 16 4.726562 15.707031 5.3125 15.117188 L 7.960938 12.46875 C 8.109375 12.320312 8.109375 12.078125 7.960938 11.929688 C 7.8125 11.78125 7.570312 11.78125 7.417969 11.929688 Z M 7.417969 11.929688 "/>
</g>
</svg>
